<?xml version="1.0" encoding="utf-8"?>
<!-- Generator: Adobe Illustrator 24.2.3, SVG Export Plug-In . SVG Version: 6.00 Build 0)  -->
<svg version="1.1" id="Layer_1" xmlns="http://www.w3.org/2000/svg" xmlns:xlink="http://www.w3.org/1999/xlink" x="0px" y="0px"
	 viewBox="0 0 169.5 97.3" style="enable-background:new 0 0 169.5 97.3;" xml:space="preserve">
<style type="text/css">
	.st0{fill:#FFFFFF;}
</style>
<g>
	<g>
		<path class="st0" d="M59.5,41.2l-2.3,0.5l-0.6,10.1l2.2-0.5c4.1-0.9,6.3-3.2,6.5-6.9C65.5,41.4,63.6,40.3,59.5,41.2z M59.5,41.2
			l-2.3,0.5l-0.6,10.1l2.2-0.5c4.1-0.9,6.3-3.2,6.5-6.9C65.5,41.4,63.6,40.3,59.5,41.2z M169.5,0L5,37.1L0,97.3l164.5-37.1
			l-14.8-26.7L169.5,0z M41.2,45.7l-14.2,3.1l-0.5,8.5l13.1-2.8L38.9,64l-13.1,2.8l-1,16.7L13.1,86l2.8-44.3l25.9-5.6L41.2,45.7z
			 M67.3,74.3L59,60.2l-3,0.6L55,77l-11.8,2.5l2.8-44.3l14.3-3.1c11.9-2.6,17.6,0.5,17.1,9.3c-0.3,5.1-3.1,9.6-8.2,13.5l11.6,16.6
			L67.3,74.3z M109.8,31l-14.2,3l-0.4,7l13.1-2.8l-0.6,9.6l-13.1,2.8L94,58.9l14.2-3.1l-0.6,9.8l-26,5.6l2.8-44.3l26-5.6L109.8,31z
			 M140.4,24.4l-14.2,3l-0.4,7l13.1-2.8l-0.6,9.6L125.2,44l-0.5,8.4l14.2-3l-0.6,9.8l-26,5.6l2.8-44.3l26-5.6L140.4,24.4z
			 M59.5,41.2l-2.3,0.5l-0.6,10.1l2.2-0.5c4.1-0.9,6.3-3.2,6.5-6.9C65.5,41.4,63.6,40.3,59.5,41.2z M59.5,41.2l-2.3,0.5l-0.6,10.1
			l2.2-0.5c4.1-0.9,6.3-3.2,6.5-6.9C65.5,41.4,63.6,40.3,59.5,41.2z M59.5,41.2l-2.3,0.5l-0.6,10.1l2.2-0.5c4.1-0.9,6.3-3.2,6.5-6.9
			C65.5,41.4,63.6,40.3,59.5,41.2z"/>
	</g>
</g>
</svg>
